<?xml version="1.0" encoding="utf-8"?>
<!-- Generator: Adobe Illustrator 16.0.0, SVG Export Plug-In . SVG Version: 6.00 Build 0)  -->
<!DOCTYPE svg PUBLIC "-//W3C//DTD SVG 1.1//EN" "http://www.w3.org/Graphics/SVG/1.1/DTD/svg11.dtd">
<svg version="1.1" id="Layer_1" xmlns="http://www.w3.org/2000/svg" xmlns:xlink="http://www.w3.org/1999/xlink" x="0px" y="0px"
	 width="229px" height="42px" viewBox="0 0 229 42" enable-background="new 0 0 229 42" xml:space="preserve">
<path fill="#171717" d="M17.892,29.117l-2.38-0.149V17.795c1.664-1.718,2.421-2.291,3.589-2.291c1.598,0,2.31,0.96,2.31,3.113
	v10.352l-1.815,0.149v0.49h7.521v-0.491l-2.381-0.149V17.938c1.388-1.729,2.43-2.434,3.589-2.434c1.598,0,2.31,0.96,2.31,3.113
	v10.352l-1.814,0.149v0.49h7.52v-0.491l-2.381-0.149V18.796c0-2.857-1.472-4.563-3.938-4.563c-2.074,0-3.683,0.891-5.374,2.976
	h-0.11c-0.425-1.893-1.784-2.976-3.74-2.976c-2.257,0-3.641,1.024-5.132,2.678h-0.153v-2.678l-0.404,0l-4.939,0.297l-0.094,0.005
	v0.492h2.113v13.939l-2.41,0.149v0.492h8.114V29.117z"/>
<path fill="#171717" d="M41.886,22.719c-2.137,0.756-4.322,1.811-4.322,3.903c0,1.995,1.395,3.284,3.552,3.284
	c1.76,0,2.907-0.551,4.522-1.636h0.167v1.636h0.401l5.304-0.303V29.11H49.13V18.171c0-2.54-1.758-3.938-4.95-3.938
	c-3.151,0-6.021,1.721-6.021,3.611c0,0.941,0.766,1.707,1.707,1.707c1.241,0,1.796-0.842,1.796-1.677c0-0.8-0.58-1.607-1.875-1.618
	v-0.151c0.759-0.646,2.196-1.166,3.233-1.166c1.9,0,2.786,0.914,2.786,2.875v3.588L41.886,22.719z M45.806,21.914v5.746
	c-0.833,0.396-1.542,0.558-2.429,0.558c-1.512,0-2.489-0.941-2.489-2.399c0-1.527,0.674-2.369,2.403-3L45.806,21.914z"/>
<path fill="#171717" d="M60.434,29.117l-2.38-0.149v-9.168c0.904-2.016,1.6-3.172,2.319-3.849h0.166
	c0.129,1.349,1.07,1.964,1.908,1.964c0.879,0,1.826-0.6,1.826-1.916c0-0.99-0.841-1.766-1.916-1.766
	c-1.504,0-2.791,1.221-4.167,3.958h-0.136v-3.958l-0.404,0l-4.939,0.297l-0.094,0.005v0.492h2.113v13.939l-2.41,0.149v0.492h8.114
	V29.117z"/>
<path fill="#171717" d="M67.611,26.235c0,2.504,1.033,3.67,3.254,3.67c1.424,0,2.674-0.314,4.18-1.051l0.056-0.027v-0.509
	l-0.138,0.056c-0.911,0.371-1.559,0.528-2.164,0.528c-1.15,0-1.864-0.476-1.864-2.846V15.177h4.166V14.53h-4.166v-3.57h-0.446
	l-2.828,3.574l-2.251,0.152v0.491h2.203V26.235z"/>
<path fill="#171717" d="M84.62,29.117l-2.38-0.149V17.795c1.701-1.755,2.586-2.291,3.769-2.291c1.635,0,2.43,1.018,2.43,3.113
	v10.352l-1.815,0.149v0.49h7.519v-0.491l-2.38-0.149V18.796c0-2.857-1.472-4.563-3.938-4.563c-2.044,0-3.67,0.801-5.428,2.678H82.24
	V7.687l-0.403,0l-4.939,0.297L76.804,7.99v0.492h2.113v20.485l-2.41,0.149v0.492h8.113V29.117z"/>
<path fill="#171717" d="M99.689,22.719c-2.137,0.756-4.321,1.811-4.321,3.903c0,1.995,1.394,3.284,3.552,3.284
	c1.76,0,2.907-0.551,4.522-1.636h0.168v1.636h0.4l5.304-0.303V29.11h-2.381V18.171c0-2.54-1.758-3.938-4.949-3.938
	c-3.151,0-6.021,1.721-6.021,3.611c0,0.941,0.765,1.707,1.706,1.707c1.241,0,1.796-0.842,1.796-1.677c0-0.8-0.58-1.607-1.875-1.618
	v-0.151c0.76-0.646,2.197-1.166,3.233-1.166c1.9,0,2.786,0.914,2.786,2.875v3.588L99.689,22.719z M103.61,21.914v5.746
	c-0.834,0.396-1.542,0.558-2.43,0.558c-1.512,0-2.489-0.941-2.489-2.399c0-1.527,0.675-2.369,2.404-3L103.61,21.914z"/>
<path fill="#171717" d="M123.811,20.103c-1.494-0.581-3.09-1.35-3.09-3.121c0-1.373,1.047-2.37,2.488-2.37
	c0.854,0,1.653,0.322,2.37,0.953c0.81,0.811,1.435,1.858,1.91,3.205l0.023,0.066h0.469v-4.751h-0.489l-0.14,1.432
	c-1.62-1.18-3.157-1.432-4.173-1.432c-3.191,0-5.337,1.714-5.337,4.265c0,2.502,1.562,3.644,4.077,4.675
	c1.885,0.824,3.511,1.535,3.511,3.39c0,1.685-1.204,2.816-2.995,2.816c-0.969,0-1.794-0.408-2.454-1.217
	c-0.648-0.732-1.207-1.696-1.708-2.946l-0.024-0.062h-0.466v4.751h0.489l0.14-1.52c0.991,0.718,2.533,1.52,4.471,1.52
	c3.441,0,5.753-1.869,5.753-4.651C128.636,22.317,126.354,21.148,123.811,20.103z"/>
<path fill="#171717" d="M135.774,10.812h-0.446l-2.828,3.574l-2.252,0.151v0.49h2.202v11.059c0,2.504,1.034,3.67,3.255,3.67
	c1.424,0,2.674-0.314,4.18-1.051l0.056-0.027V28.17l-0.138,0.056c-0.911,0.37-1.559,0.528-2.164,0.528
	c-1.151,0-1.864-0.477-1.864-2.846V15.028h4.166v-0.645h-4.166V10.812z"/>
<path fill="#171717" d="M154.121,24.88c-0.645,1.261-2.49,2.565-4.463,2.565c-3,0-5.102-2.715-5.137-6.615h9.773l0.014-0.084
	c0.104-0.655,0.15-1.129,0.15-1.533c0-3.781-2.91-5.128-5.635-5.128c-3.761,0-7.568,2.712-7.568,7.896
	c0,2.08,0.672,4.002,1.892,5.409c1.341,1.549,3.231,2.366,5.468,2.366c3.32,0,5.432-2.491,5.989-4.807l0.03-0.123h-0.486
	L154.121,24.88z M150.941,20.187l-6.355,0.145c0.242-3.655,1.729-5.749,4.09-5.749c1.217,0,2.518,0.92,2.518,3.5
	C151.193,18.709,151.081,19.408,150.941,20.187z"/>
<polygon fill="#171717" points="180.551,14.856 180.551,14.383 174.816,14.383 174.816,14.853 177.172,15.589 173.801,26.553 
	173.651,26.553 170.109,15.021 172.512,14.879 172.606,14.875 172.606,14.383 164.491,14.383 164.491,14.872 166.303,15.022 
	167.432,18.351 164.875,26.553 164.723,26.553 160.8,15.019 162.876,14.873 162.876,14.383 155.178,14.383 155.178,14.872 
	156.962,15.023 162.295,29.542 162.319,29.608 164.457,29.608 167.335,20.523 167.719,19.296 171.221,29.541 171.244,29.608 
	173.383,29.608 177.822,15.606 180.477,14.876 "/>
<path fill="#171717" d="M191.854,18.024c0-2.54-1.758-3.938-4.949-3.938c-3.152,0-6.021,1.721-6.021,3.61
	c0,0.941,0.766,1.707,1.707,1.707c1.24,0,1.795-0.843,1.795-1.678c0-0.8-0.58-1.607-1.875-1.617v-0.151
	c0.76-0.646,2.197-1.166,3.234-1.166c1.9,0,2.785,0.914,2.785,2.876v3.588l-3.92,1.315c-2.137,0.757-4.322,1.812-4.322,3.903
	c0,1.995,1.395,3.283,3.553,3.283c1.762,0,2.908-0.551,4.521-1.636h0.168v1.636h0.4l5.211-0.297l0.094-0.005v-0.491h-2.381V18.024z
	 M188.529,21.766v5.746c-0.834,0.396-1.541,0.558-2.43,0.558c-1.512,0-2.488-0.942-2.488-2.399c0-1.527,0.674-2.369,2.404-3.001
	L188.529,21.766z"/>
<path fill="#171717" d="M205.676,14.085c-1.506,0-2.791,1.221-4.168,3.958h-0.137v-3.958h-0.402l-5.033,0.304v0.49h2.113v13.94
	l-2.41,0.149v0.49h8.113v-0.49l-2.381-0.149v-9.169c0.904-2.016,1.602-3.172,2.32-3.849h0.166c0.129,1.349,1.07,1.964,1.908,1.964
	c0.879,0,1.824-0.599,1.824-1.915C207.59,14.861,206.75,14.085,205.676,14.085z"/>
<path fill="#171717" d="M218.479,15.028v-0.645h-4.166v-3.571h-0.447l-2.828,3.574l-2.25,0.151v0.49h2.201v11.059
	c0,2.504,1.033,3.67,3.254,3.67c1.426,0,2.676-0.314,4.18-1.051l0.057-0.027V28.17l-0.139,0.056c-0.91,0.37-1.557,0.528-2.164,0.528
	c-1.15,0-1.863-0.477-1.863-2.846V15.028H218.479z"/>
</svg>