<?xml version="1.0" encoding="utf-8"?>
<!-- Generator: Adobe Illustrator 13.0.0, SVG Export Plug-In . SVG Version: 6.00 Build 14948)  -->
<!DOCTYPE svg PUBLIC "-//W3C//DTD SVG 1.1//EN" "http://www.w3.org/Graphics/SVG/1.1/DTD/svg11.dtd">
<svg version="1.1" id="Layer_1" xmlns="http://www.w3.org/2000/svg" xmlns:xlink="http://www.w3.org/1999/xlink" x="0px" y="0px"
	 width="134px" height="30px" viewBox="0 0 134 30" enable-background="new 0 0 134 30" xml:space="preserve">
<path fill="#231F20" d="M92,22.223V18.3h-9.962c0,0-0.08,0-0.08,0.08v3.843h0.16c0-1.841,1.045-3.763,3.375-3.763h0.159
	c0.082,0,0.082,0,0.082,0.08v10.806c0,0.08,0,0.08-0.08,0.08h-1.367v0.16h5.223v-0.16h-1.445c-0.08,0-0.08,0-0.08-0.08V18.541
	c0-0.081,0-0.081,0.08-0.081h0.16c2.33,0,3.455,1.841,3.455,3.763C91.759,22.303,92,22.303,92,22.223L92,22.223z M81.878,26.145
	c0-1.92-1.285-2.722-3.375-3.441c-2.008-0.721-2.892-1.361-2.892-2.482c0-1.119,0.804-1.921,2.091-1.921
	c1.444,0,2.729,1.36,2.729,2.882h0.16v-3.041c0-0.08-0.16-0.08-0.16,0c0,0.159-0.16,0.399-0.643,0.399
	c-0.805,0-1.205-0.399-2.089-0.399c-1.606,0-3.052,1.521-3.052,3.602c0,1.921,1.203,2.721,2.65,3.281
	c2.49,0.881,3.374,1.281,3.374,2.802c0,1.041-0.804,2.082-2.651,2.082c-2.09,0-3.535-2.482-3.535-3.763c0-0.08-0.16-0.08-0.16,0
	v3.922c0,0.08,0.16,0.08,0.16,0c0-0.32,0.402-0.641,0.884-0.641c0.644,0,1.606,0.641,2.731,0.641
	C80.512,29.986,81.877,27.906,81.878,26.145L81.878,26.145z M73.441,29.666v-3.684h-0.159c0,1.682-1.124,3.603-3.775,3.603H67.9
	c-0.08,0-0.08,0-0.08-0.08v-5.522h0.4c1.286,0,2.09,1.041,2.09,2.16h0.16v-4.56h-0.16c0,1.12-0.804,2.16-2.09,2.16h-0.4v-5.202
	c0-0.081,0-0.081,0.08-0.081h1.525c2.008,0,2.973,1.761,2.973,3.282h0.16V18.38c0,0,0-0.08-0.08-0.08h-8.436v0.16h1.447
	c0.08,0,0.08,0,0.08,0.08v10.806c0,0.08,0,0.08-0.08,0.08h-1.447v0.16l9.4,0.08H73.441L73.441,29.666z M64.527,25.424v-0.16h-5.223
	v0.159h1.445c0.081,0,0.081,0,0.081,0.081v2.881c0,0.881-0.483,1.441-1.928,1.441c-0.723,0-1.286-0.16-1.687-0.641
	c-0.723-0.801-0.804-2.16-0.804-5.123c0-2.802,0.242-4.401,1.045-5.123c0.483-0.479,1.044-0.64,1.687-0.64
	c1.606,0,2.972,2.082,2.972,3.683h0.16v-3.842h-0.16c0,0.159-0.321,0.399-0.803,0.399c-0.562,0-1.446-0.399-2.17-0.399
	c-2.971,0-5.22,2.801-5.22,5.922c0,3.043,1.927,5.924,4.98,5.924c1.767,0,2.57-0.801,3.294-0.801c0.482,0,0.643,0.24,0.722,0.561
	c0,0.08,0.242,0.08,0.242,0v-4.322c0,0,0-0.08,0.08-0.08h1.286L64.527,25.424L64.527,25.424z M53.279,29.665v-0.16h-1.446
	c-0.08,0-0.08,0-0.08-0.08V18.62c0-0.08,0-0.08,0.08-0.08h1.446v-0.16h-5.221v0.16h1.446c0.08,0,0.08,0,0.08,0.08v10.806
	c0,0.08,0,0.08-0.08,0.08h-1.446v0.16L53.279,29.665L53.279,29.665z M45.326,23.982c0,3.041-0.24,4.162-1.045,4.882
	c-0.48,0.48-0.964,0.56-1.686,0.56h-1.287c-0.08,0-0.08,0-0.08-0.079V18.46c0-0.08,0-0.08,0.08-0.08h1.285
	c0.723,0,1.285,0.16,1.687,0.56C45.084,19.82,45.325,21.342,45.326,23.982L45.326,23.982L45.326,23.982z M47.816,23.982
	c0-3.123-2.33-5.684-5.141-5.684h-5.142v0.16H38.9c0.081,0,0.081,0,0.081,0.08v10.806c0,0.08,0,0.08-0.08,0.08h-1.367v0.16h5.142
	C45.488,29.665,47.817,27.104,47.816,23.982L47.816,23.982z M133.116,11.665v-3.84h-0.161c0,1.6-1.125,3.681-3.535,3.681h-1.367
	c-0.08,0-0.08,0-0.08-0.08V0.62c0-0.08,0-0.08,0.08-0.08h1.447V0.38h-5.223v0.16h1.447c0.08,0,0.08,0,0.08,0.08v10.806
	c0,0.08,0,0.08-0.08,0.08h-1.447v0.16L133.116,11.665C133.034,11.666,133.115,11.666,133.116,11.665L133.116,11.665z M101.783,0.541
	V0.38H98.57v0.16h1.445c0.08,0,0.08,0,0.08,0.08v7.763c0,2.001-0.964,3.282-3.213,3.282c-1.768,0-2.33-1.2-2.33-3.122V0.62
	c0-0.08,0-0.08,0.08-0.08h1.446V0.38h-5.222v0.16h1.445c0.081,0,0.081,0,0.081,0.08v7.924c0,2.402,1.687,3.442,4.097,3.442
	c2.651,0,3.856-1.441,3.856-3.602V0.62c0-0.08,0-0.08,0.08-0.08L101.783,0.541L101.783,0.541z M90.216,4.223V0.3h-9.882
	c0,0-0.08,0-0.08,0.08v3.843h0.161c0-1.841,1.045-3.763,3.375-3.763h0.16c0.081,0,0.081,0,0.081,0.08v10.806
	c0,0.08,0,0.08-0.08,0.08h-1.366v0.16h5.222v-0.16h-1.447c-0.08,0-0.08,0-0.08-0.08V0.541c0-0.081,0-0.081,0.08-0.081h0.16
	c2.33,0,3.455,1.841,3.455,3.763C89.975,4.303,90.216,4.303,90.216,4.223z M79.531,11.906V7.584h-0.16
	c0,2.081-1.607,4.163-3.536,4.163c-0.722,0-1.364-0.161-1.767-0.641c-0.723-0.8-1.045-2.401-1.045-5.123s0.322-4.402,1.045-5.122
	c0.482-0.481,0.964-0.64,1.688-0.64c1.605,0,3.293,2.08,3.293,3.681h0.16V0.14h-0.16c0,0.16-0.32,0.4-0.803,0.4
	c-0.723,0-1.768-0.4-2.49-0.4c-3.054,0-5.223,2.801-5.223,5.923c0,3.202,2.25,5.923,5.302,5.923c0.884,0,2.09-0.48,2.812-0.48
	c0.483,0,0.724,0.32,0.724,0.48C79.37,11.906,79.531,11.906,79.531,11.906z M69.891,11.666V7.983h-0.16
	c0,1.681-1.125,3.602-3.775,3.602h-1.607c-0.08,0-0.08,0-0.08-0.08V5.983h0.401c1.286,0,2.09,1.04,2.09,2.16h0.16v-4.56h-0.161
	c0,1.12-0.803,2.16-2.09,2.16h-0.4V0.541c0-0.081,0-0.081,0.08-0.081h1.526c2.008,0,2.974,1.761,2.974,3.282h0.159V0.38
	c0,0,0-0.08-0.08-0.08H60.49v0.16h1.447c0.08,0,0.08,0,0.08,0.08v10.806c0,0.08,0,0.08-0.08,0.08h-1.446v0.16L69.891,11.666
	C69.811,11.666,69.891,11.666,69.891,11.666L69.891,11.666z M59.689,4.223V0.3h-9.882c0,0-0.08,0-0.08,0.08v3.843h0.16
	c0-1.841,1.045-3.763,3.374-3.763h0.162c0.08,0,0.08,0,0.08,0.08v10.806c0,0.08,0,0.08-0.08,0.08h-1.366v0.16h5.221v-0.16h-1.365
	c-0.08,0-0.08,0-0.08-0.08V0.541c0-0.081,0-0.081,0.08-0.081h0.16c2.33,0,3.455,1.841,3.455,3.763
	C59.528,4.303,59.688,4.303,59.689,4.223L59.689,4.223z M49.085,11.665v-0.159h-1.447c-0.08,0-0.08,0-0.08-0.08V0.62
	c0-0.08,0-0.08,0.08-0.08h1.447V0.38h-5.223v0.16h1.446c0.08,0,0.08,0,0.08,0.08v10.806c0,0.08,0,0.08-0.08,0.08h-1.446v0.16
	L49.085,11.665L49.085,11.665z M42.899,11.665v-0.159h-1.446c-0.081,0-0.081,0-0.081-0.08V0.62c0-0.08,0-0.08,0.08-0.08H42.9V0.38
	h-5.061v0.16h1.285c0.08,0,0.08,0,0.08,0.08v5.123h-3.696V0.62c0-0.08,0-0.08,0.081-0.08h1.285V0.38h-5.06v0.16h1.365
	c0.08,0,0.08,0,0.08,0.08v10.806c0,0.08,0,0.08-0.08,0.08h-1.366v0.16h5.061v-0.16h-1.285c-0.08,0-0.08,0-0.08-0.08V5.903h3.696
	v5.523c0,0.08,0,0.08-0.081,0.08h-1.285v0.16L42.899,11.665L42.899,11.665z M30.607,11.905v-4.32h-0.16
	c0,2.081-1.607,4.163-3.535,4.163c-0.723,0-1.365-0.161-1.768-0.641c-0.723-0.8-1.044-2.401-1.044-5.123
	c0-2.722,0.321-4.402,1.044-5.122c0.483-0.481,0.964-0.64,1.688-0.64c1.606,0,3.293,2.08,3.293,3.681h0.16V0.14h-0.16
	c0,0.16-0.321,0.4-0.803,0.4c-0.723,0-1.767-0.4-2.49-0.4c-3.053,0-5.223,2.801-5.223,5.923c0,3.202,2.25,5.923,5.303,5.923
	c0.884,0,2.089-0.48,2.811-0.48c0.483,0,0.724,0.32,0.724,0.48C30.447,11.906,30.607,11.906,30.607,11.905L30.607,11.905z
	 M17.673,3.183c0,2-0.321,2.481-1.848,2.481h-0.963V0.541c0-0.081,0-0.081,0.08-0.081h0.723C17.191,0.54,17.673,1.18,17.673,3.183
	L17.673,3.183z M22.413,11.427l-0.08-0.16c-0.242,0.24-0.483,0.4-0.884,0.4c-0.562,0-0.964-0.48-0.964-1.36V8.864
	c0-1.6-1.045-3.122-3.615-3.122c1.848,0,3.133-1.2,3.133-2.642c0-1.6-1.446-2.801-3.856-2.801h-4.981v0.16h1.447
	c0.08,0,0.08,0,0.08,0.08v10.806c0,0.08,0,0.08-0.08,0.08h-1.447v0.16h5.141v-0.16h-1.365c-0.08,0-0.08,0-0.08-0.08V5.823h0.963
	c1.447,0,2.33,0.56,2.33,1.92v1.041c0,2.322,1.527,3.123,2.812,3.123C21.499,11.985,22.035,11.807,22.413,11.427L22.413,11.427z
	 M6.185,7.664H2.892L4.58,2.941L6.185,7.664L6.185,7.664L6.185,7.664z M11.407,11.666v-0.16h-1.365c-0.08,0-0.08,0-0.161-0.08
	L5.623,0.06c0-0.08-0.16-0.08-0.16,0L1.606,10.786c-0.241,0.64-0.241,0.64-0.402,0.64H0v0.16h3.052c0.081,0,0.081-0.16,0-0.16H1.686
	c-0.08,0-0.08-0.08,0.162-0.64l1.044-2.962h3.454l1.205,3.602c0,0,0,0.08-0.08,0.08H6.025c-0.08,0-0.08,0.16,0,0.16H11.407z
	 M106.927,5.663h-0.964V0.541c0-0.081,0-0.081,0.08-0.081h0.723c1.526,0,2.008,0.641,2.008,2.641
	C108.854,5.183,108.533,5.663,106.927,5.663L106.927,5.663z M112.55,11.505c-0.562,0-0.964-0.56-0.964-1.36v-1.2
	c0-1.601-1.045-3.123-3.615-3.123c1.848,0,3.133-1.2,3.133-2.641c0-1.6-1.446-2.8-3.855-2.8h-4.98v0.16h1.445
	c0.08,0,0.08,0,0.08,0.08v10.805c0,0.08,0,0.08-0.08,0.08h-1.445v0.16h5.141v-0.16h-1.366c-0.08,0-0.08,0-0.08-0.08V5.903h0.964
	c1.446,0,2.33,0.56,2.33,1.921v1.04c0,2.321,1.527,2.882,2.812,2.882h0.4v-0.24L112.55,11.505L112.55,11.505z M118.575,7.665h-3.293
	l1.686-4.724L118.575,7.665L118.575,7.665L118.575,7.665z M123.797,11.666v-0.16h-1.365c-0.08,0-0.08,0-0.162-0.08L118.012,0.06
	c0-0.08-0.16-0.08-0.16,0l-3.856,10.726c-0.241,0.64-0.241,0.64-0.402,0.64h-0.884v0.16h2.732c0.08,0,0.08-0.16,0-0.16h-1.366
	c-0.08,0-0.08-0.08,0.161-0.64l1.045-2.962h3.453l1.205,3.602c0,0,0,0.08-0.08,0.08h-1.445c-0.081,0-0.081,0.16,0,0.16H123.797
	L123.797,11.666z"/>
</svg>
